<?xml version="1.0" standalone="no"?>
<!DOCTYPE svg PUBLIC "-//W3C//DTD SVG 20010904//EN"
 "http://www.w3.org/TR/2001/REC-SVG-20010904/DTD/svg10.dtd">
<svg version="1.0" xmlns="http://www.w3.org/2000/svg"
 width="700.000000pt" height="700.000000pt" viewBox="0 0 700.000000 700.000000"
 preserveAspectRatio="xMidYMid meet">
<metadata>
Created by potrace 1.14, written by Peter Selinger 2001-2017
</metadata>
<g transform="translate(0.000000,700.000000) scale(0.100000,-0.100000)"
fill="#000000" stroke="none">
<path d="M1217 5656 c-57 -21 -104 -61 -139 -121 l-23 -40 -3 -1090 c-2 -799
0 -1104 8 -1144 10 -43 22 -64 63 -106 81 -82 75 -82 615 -81 301 1 462 -2
463 -9 0 -5 1 -482 2 -1060 l2 -1050 22 -41 c34 -64 88 -112 146 -129 77 -23
2191 -23 2258 0 56 19 110 67 140 125 l24 45 1 1053 c0 579 4 1055 8 1059 3 4
219 7 479 8 457 1 473 1 517 22 54 25 101 70 126 121 18 35 19 88 22 1137 3
1239 7 1162 -73 1241 -82 81 134 74 -2379 74 -1848 -1 -2248 -3 -2279 -14z
m2138 -1283 c0 -663 -3 -1004 -10 -1006 -5 -2 -458 -3 -1005 -3 l-995 1 -3
1008 -2 1007 1007 -2 1008 -3 0 -1002z m2305 -1 l0 -1007 -1005 0 c-664 0
-1005 3 -1006 10 -4 26 -5 1991 -2 1998 2 4 456 7 1009 7 l1004 0 0 -1008z
m-1157 -1301 c4 -1 7 -453 6 -1006 l-1 -1005 -1008 0 -1008 0 0 1003 c0 551 4
1004 8 1007 6 4 1973 5 2003 1z"/>
<path d="M2294 4736 c-31 -14 -504 -476 -536 -525 -22 -32 -23 -102 -3 -141
32 -63 125 -95 186 -64 14 7 111 98 215 203 l190 190 185 -185 c184 -184 223
-214 275 -214 112 0 183 131 121 221 -13 19 -129 139 -258 268 -267 266 -292
283 -375 247z"/>
<path d="M4600 4739 c-30 -12 -515 -493 -536 -531 -31 -59 -7 -146 50 -183 38
-25 98 -30 137 -11 19 9 117 99 218 200 l185 185 180 -181 c100 -100 195 -189
211 -199 109 -67 250 58 200 177 -17 41 -468 498 -525 533 -37 22 -79 26 -120
10z"/>
<path d="M3955 2444 c-5 -1 -22 -5 -37 -8 -18 -4 -95 -73 -223 -201 l-194
-194 -185 183 c-101 102 -198 192 -216 201 -89 46 -203 -27 -204 -130 0 -52
33 -92 274 -332 277 -277 291 -288 370 -264 33 10 88 60 294 267 267 267 285
291 272 359 -7 37 -37 80 -68 96 -27 14 -70 27 -83 23z"/>
</g>
</svg>
